<svg width="150" height="166" viewBox="0 0 150 166" fill="none" xmlns="http://www.w3.org/2000/svg">
<path d="M43.125 20.6764C43.125 32.0853 37.2422 41.3527 30 41.3527C22.7508 41.3527 16.875 32.0853 16.875 20.6764C16.875 9.25637 22.7508 0 30 0C37.2422 0 43.125 9.25637 43.125 20.6764ZM48.8438 60.663C41.8828 70.4104 37.5 84.6254 37.5 100.428C37.5 113.092 40.1016 124.723 45 133.843V141.781C45 148.316 41.6484 153.596 37.5 153.596H22.5C18.3586 153.596 15 148.316 15 141.781V131.886C6.13125 125.24 0 111.025 0 94.5205C0 71.6658 11.7516 53.1678 26.25 53.1678H33.75C39.1641 53.1678 44.5781 55.937 48.8438 60.663ZM15 78.9025C12.6656 83.0378 11.25 88.5392 11.25 94.5205C11.25 100.502 12.6656 106.003 15 110.139V78.9025ZM105 141.781V133.843C109.688 124.723 112.5 113.092 112.5 100.428C112.5 84.6254 108.117 70.4104 101.156 60.663C105.422 55.937 110.625 53.1678 116.25 53.1678H123.75C138.258 53.1678 150 71.6658 150 94.5205C150 111.025 143.859 125.24 135 131.886V141.781C135 148.316 131.648 153.596 127.5 153.596H112.5C108.352 153.596 105 148.316 105 141.781ZM135 110.139C137.133 106.003 138.75 100.502 138.75 94.5205C138.75 88.5392 137.133 83.0378 135 78.9025V110.139ZM133.125 20.6764C133.125 32.0853 127.242 41.3527 120 41.3527C112.758 41.3527 106.875 32.0853 106.875 20.6764C106.875 9.25637 112.758 0 120 0C127.242 0 133.125 9.25637 133.125 20.6764ZM60 23.6301C60 10.5782 66.7266 0 75 0C83.2734 0 90 10.5782 90 23.6301C90 36.6636 83.2734 47.2603 75 47.2603C66.7266 47.2603 60 36.6636 60 23.6301ZM105 100.428C105 116.932 98.8594 131.147 90 137.793V153.596C90 160.131 86.6484 165.411 82.5 165.411H67.5C63.3516 165.411 60 160.131 60 153.596V137.793C51.1406 131.147 45 116.932 45 100.428C45 77.5733 56.7422 59.0753 71.25 59.0753H78.75C93.2578 59.0753 105 77.5733 105 100.428ZM60 116.046V84.81C57.6562 88.9453 56.25 94.4467 56.25 100.428C56.25 106.409 57.6562 111.911 60 116.046ZM90 84.81V116.046C92.1328 111.874 93.75 106.409 93.75 100.428C93.75 94.4467 92.1328 88.9453 90 84.81Z" fill="#37509B"/>
</svg>
