<svg width="30" height="30" viewBox="0 0 30 30" fill="none" xmlns="http://www.w3.org/2000/svg">
<path d="M15 0C6.71484 0 0 6.71484 0 15C0 23.2852 6.71484 30 15 30C23.2852 30 30 23.2852 30 15C30 6.71484 23.2852 0 15 0ZM15 27.1875C8.2793 27.1875 2.8125 21.7201 2.8125 15C2.8125 8.27988 8.2793 2.8125 15 2.8125C21.7207 2.8125 27.1875 8.27988 27.1875 15C27.1875 21.7201 21.7207 27.1875 15 27.1875ZM14.9473 10.3125C16.1813 10.3125 17.3449 10.7995 18.2186 11.6824C18.7679 12.2299 19.6559 12.2391 20.209 11.6916C20.7601 11.1441 20.7638 10.2543 20.2181 9.70114C18.8119 8.282 16.9398 7.50036 14.9476 7.50036C14.9476 7.50036 14.9495 7.50036 14.9476 7.50036C12.9572 7.50036 11.0834 8.282 9.67712 9.70114C6.78025 12.6238 6.78025 17.3769 9.67712 20.3008C11.0834 21.7199 12.9572 22.5015 14.9476 22.5015C14.9495 22.5015 14.9476 22.5015 14.9476 22.5015C16.9398 22.5015 18.8119 21.7199 20.2181 20.3008C20.7638 19.7477 20.7601 18.8582 20.209 18.3103C19.656 17.7647 18.7682 17.7701 18.2186 18.3195C17.3449 19.2019 16.1813 19.6894 14.9473 19.6894C14.9473 19.6894 14.9491 19.6894 14.9473 19.6894C13.7115 19.6894 12.5479 19.2024 11.6725 18.3195C9.85957 16.4902 9.85957 13.513 11.6725 11.6808C12.5508 10.7988 13.7109 10.3125 14.9473 10.3125Z" fill="white"/>
</svg>
