<svg width="300" height="300" viewBox="0 0 400 300" fill="none" xmlns="http://www.w3.org/2000/svg">
<path opacity="0.11" d="M182.474 63.668C180.48 39.9192 157.257 21.1759 128.881 21.1759C99.1973 21.1759 75.1333 41.6833 75.1333 66.98C75.1333 82.9524 84.7316 97.0082 99.2765 105.205V183.473C99.2765 186.519 103.042 188.482 106.225 187.106L116.27 182.741V312.697H87.1622C81.8838 312.697 77.6049 316.344 77.6049 320.842V334.754C77.6049 344.129 86.5218 351.728 97.5129 351.728H298.757C298.547 351.728 298.343 351.707 298.134 351.701C308.879 351.46 317.505 343.981 317.505 334.766V80.6343C317.505 71.2676 326.431 63.668 337.432 63.668H182.474Z" fill="#2626BC"/>
<path d="M323.797 63.5272V106.305H367.342C372.62 106.305 376.899 102.659 376.899 98.1603V63.5272C376.899 56.0091 371.155 49.6233 363.194 47.4082C361.234 46.8543 359.15 46.561 356.981 46.561H303.889C314.88 46.561 323.797 54.16 323.797 63.5272Z" fill="#FF5BA8" fill-opacity="0.8"/>
<path opacity="0.11" d="M300.859 83.0752V125.854H344.404C349.682 125.854 353.961 122.206 353.961 117.708V83.0752C353.961 75.557 348.217 69.1718 340.255 66.9561C338.296 66.4022 336.212 66.1089 334.043 66.1089H280.951C291.942 66.1089 300.859 73.7085 300.859 83.0752Z" fill="#2626BC"/>
<path d="M323.797 63.5272V106.305H349.488V63.5272C349.488 56.0091 355.232 49.6233 363.194 47.4082C361.234 46.8543 359.15 46.561 356.981 46.561H303.889C314.88 46.561 323.797 54.16 323.797 63.5272Z" fill="#FF248B" fill-opacity="0.8"/>
<path d="M357.501 46.5651C346.5 46.5651 337.573 54.1647 337.573 63.5313V317.663C337.573 327.03 328.666 334.621 317.674 334.621H136.339V63.5313C136.339 54.1647 145.247 46.5651 156.247 46.5651H357.501Z" fill="#FFC7E0"/>
<path d="M268.186 215.07H185.17C182.531 215.07 180.392 216.893 180.392 219.142V333.47H272.965V219.142C272.965 216.893 270.825 215.07 268.186 215.07Z" fill="#FFDBED"/>
<path d="M337.574 151.424V214.914C336.14 215.06 334.678 215.134 333.196 215.134C312.476 215.134 295.683 200.823 295.683 183.164C295.683 165.514 312.476 151.204 333.196 151.204C334.678 151.204 336.14 151.277 337.574 151.424Z" fill="#B7C5FF"/>
<path d="M202.697 63.0018C202.697 78.9743 193.101 93.0324 178.555 101.226V179.492C178.555 182.538 174.789 184.501 171.606 183.124L148.955 173.277L136.339 178.758V63.5313C136.339 54.1647 145.247 46.5651 156.247 46.5651H199.132C201.435 51.6639 202.697 57.2107 202.697 63.0018Z" fill="#B7C5FF"/>
<path d="M318.827 334.625H117.584C106.592 334.625 97.675 327.026 97.675 317.651V303.739C97.675 299.24 101.954 295.594 107.232 295.594H289.361C294.64 295.594 298.919 299.24 298.919 303.739V317.651C298.919 327.026 307.836 334.625 318.827 334.625Z" fill="#FF5BA8" fill-opacity="0.8"/>
<path d="M333.196 204.024C353.91 204.024 370.703 189.714 370.703 172.061C370.703 154.408 353.91 140.098 333.196 140.098C312.482 140.098 295.689 154.408 295.689 172.061C295.689 189.714 312.482 204.024 333.196 204.024Z" fill="#02FFB3"/>
<path d="M178.556 70.1772V166.37C178.556 169.416 174.79 171.379 171.607 170.002L148.956 160.155L126.294 170.002C123.112 171.379 119.347 169.416 119.347 166.37V70.1772H178.556Z" fill="#FFC300"/>
<path d="M178.556 70.1772V99.3851C169.667 103.271 159.603 105.453 148.956 105.453C138.299 105.453 128.235 103.263 119.347 99.3851V70.1772H178.556Z" fill="#DBA504"/>
<path d="M148.951 95.681C178.635 95.681 202.699 75.1736 202.699 49.877C202.699 24.5798 178.635 4.07266 148.951 4.07266C119.267 4.07266 95.2029 24.5798 95.2029 49.877C95.2029 75.1736 119.267 95.681 148.951 95.681Z" fill="#FFD54D"/>
<path d="M213.232 125.776H297.394C300.543 125.776 303.097 123.601 303.097 120.916V95.2691C303.097 92.585 300.544 90.4088 297.394 90.4088H213.232C210.083 90.4088 207.529 92.5844 207.529 95.2691V120.916C207.529 123.601 210.083 125.776 213.232 125.776Z" fill="#FFDBED"/>
<path d="M221.977 94.4812H206.01C203.37 94.4812 201.231 92.6571 201.231 90.4083C201.231 88.16 203.37 86.3359 206.01 86.3359H221.977C224.618 86.3359 226.757 88.16 226.757 90.4083C226.757 92.6571 224.618 94.4812 221.977 94.4812Z" fill="#97FFD2"/>
<path d="M255.524 119.915H206.007C203.366 119.915 201.227 118.09 201.227 115.842C201.227 113.593 203.366 111.769 206.007 111.769H255.524C258.164 111.769 260.303 113.593 260.303 115.842C260.303 118.09 258.164 119.915 255.524 119.915Z" fill="#9FB0FE"/>
<path d="M279.141 133.667H206.007C203.366 133.667 201.227 131.843 201.227 129.594C201.227 127.345 203.366 125.521 206.007 125.521H279.141C281.78 125.521 283.919 127.345 283.919 129.594C283.919 131.843 281.78 133.667 279.141 133.667Z" fill="#9FB0FE"/>
<path d="M240.712 196.454H178.823C176.183 196.454 174.044 194.631 174.044 192.382C174.044 190.133 176.183 188.31 178.823 188.31H240.712C243.352 188.31 245.49 190.133 245.49 192.382C245.49 194.631 243.352 196.454 240.712 196.454Z" fill="#9FB0FE"/>
<path d="M300.432 219.806H178.823C176.183 219.806 174.044 217.983 174.044 215.734C174.044 213.485 176.183 211.662 178.823 211.662H300.43C303.07 211.662 305.209 213.485 305.209 215.734C305.209 217.983 303.07 219.806 300.432 219.806Z" fill="#02FFB3"/>
<path d="M300.432 235.299H178.823C176.183 235.299 174.044 233.475 174.044 231.226C174.044 228.978 176.183 227.154 178.823 227.154H300.43C303.07 227.154 305.209 228.978 305.209 231.226C305.209 233.475 303.07 235.299 300.432 235.299Z" fill="#02FFB3"/>
<path d="M300.432 250.79H178.823C176.183 250.79 174.044 248.967 174.044 246.718C174.044 244.469 176.183 242.645 178.823 242.645H300.43C303.07 242.645 305.209 244.469 305.209 246.718C305.209 248.967 303.07 250.79 300.432 250.79Z" fill="#02FFB3"/>
<path d="M208.045 156.451C210.995 156.451 213.387 154.413 213.387 151.898C213.387 149.384 210.995 147.345 208.045 147.345C205.094 147.345 202.702 149.384 202.702 151.898C202.702 154.413 205.094 156.451 208.045 156.451Z" fill="#6583FE"/>
<path d="M224.208 156.451C227.159 156.451 229.551 154.413 229.551 151.898C229.551 149.384 227.159 147.345 224.208 147.345C221.257 147.345 218.865 149.384 218.865 151.898C218.865 154.413 221.257 156.451 224.208 156.451Z" fill="#6583FE"/>
<path d="M240.369 156.451C243.319 156.451 245.712 154.413 245.712 151.898C245.712 149.384 243.319 147.345 240.369 147.345C237.418 147.345 235.026 149.384 235.026 151.898C235.026 154.413 237.418 156.451 240.369 156.451Z" fill="#6583FE"/>
<path d="M148.951 131.677C146.312 131.677 144.172 129.854 144.172 127.604V118.216C144.172 115.966 146.312 114.143 148.951 114.143C151.589 114.143 153.729 115.966 153.729 118.216V127.604C153.729 129.854 151.589 131.677 148.951 131.677Z" fill="#DBA504"/>
<path d="M357.652 42.502C357.599 42.5003 309.215 42.488 309.215 42.488C306.575 42.488 304.436 44.311 304.436 46.561C304.436 48.8104 306.575 50.6334 309.215 50.6334H337.995C334.743 54.1978 332.802 58.674 332.802 63.529V136.035C309.667 136.217 290.909 152.305 290.909 172.063C290.909 191.821 309.667 207.909 332.802 208.091V317.656C332.802 324.6 326.324 330.265 318.249 330.528C310.176 330.265 303.697 324.6 303.697 317.656V303.74C303.697 297.004 297.266 291.523 289.361 291.523H141.118V168.134L148.953 164.73L169.442 173.63C170.82 174.229 172.307 174.527 173.787 174.526C175.515 174.526 177.236 174.122 178.775 173.318C181.632 171.826 183.339 169.229 183.339 166.374V90.2017C197.731 81.2644 207.17 66.881 207.457 50.634H282.359C284.999 50.634 287.138 48.811 287.138 46.5616C287.138 44.3121 284.999 42.4892 282.359 42.4892H206.833C202.631 18.4785 178.278 0 148.953 0C116.681 0 90.4255 22.3751 90.4255 49.8764C90.4255 66.4336 99.9501 81.1242 114.566 90.2017V113.718C114.566 115.967 116.706 117.79 119.345 117.79C121.984 117.79 124.124 115.967 124.124 113.718V95.0282C131.666 98.0526 140.079 99.7522 148.953 99.7522C157.826 99.7522 166.238 98.0526 173.781 95.0282V166.372L151.123 156.529C149.759 155.938 148.146 155.938 146.783 156.529L124.124 166.372V136.605C124.124 134.356 121.984 132.533 119.345 132.533C116.706 132.533 114.566 134.356 114.566 136.605V166.373C114.566 169.229 116.272 171.825 119.13 173.317C121.988 174.81 125.477 174.926 128.464 173.63L131.559 172.285V291.523H107.234C99.3288 291.523 92.8971 297.004 92.8971 303.74V317.655C92.8971 329.258 103.974 338.697 117.587 338.697H318.83C319.161 338.697 319.484 338.668 319.796 338.614C332.418 337.691 342.36 328.647 342.36 317.655V207.236C361.282 203.657 375.48 189.25 375.48 172.062C375.48 154.873 361.282 140.467 342.36 136.888V110.377H367.34C375.245 110.377 381.676 104.896 381.676 98.1591V63.5284C381.677 52.1171 370.961 42.8051 357.652 42.502ZM99.9835 49.8764C99.9835 26.8653 121.95 8.14495 148.953 8.14495C175.955 8.14495 197.922 26.8653 197.922 49.8764C197.922 72.8881 175.955 91.608 148.953 91.608C121.951 91.608 99.9835 72.8881 99.9835 49.8764ZM287.902 330.552H117.589C109.245 330.552 102.457 324.766 102.457 317.655V303.74C102.457 301.495 104.6 299.668 107.236 299.668H289.363C291.998 299.668 294.141 301.495 294.141 303.74V317.655C294.141 322.512 296.081 326.987 299.336 330.552H287.902ZM365.924 172.062C365.924 187.441 351.243 199.953 333.196 199.953C315.15 199.953 300.469 187.441 300.469 172.062C300.469 156.682 315.15 144.171 333.196 144.171C351.243 144.171 365.924 156.682 365.924 172.062ZM372.12 98.1603C372.12 100.406 369.976 102.233 367.341 102.233H342.36V63.529C342.36 56.4886 349.018 50.7573 357.249 50.6439C365.472 50.7655 372.12 56.4938 372.12 63.529V98.1603Z" fill="#4886A7"/>
<path d="M148.952 81.389C128.562 81.389 111.973 67.2529 111.973 49.8764C111.973 32.5 128.562 18.3633 148.952 18.3633C169.342 18.3633 185.931 32.5 185.931 49.8764C185.931 67.2529 169.343 81.389 148.952 81.389ZM148.952 26.5075C133.832 26.5075 121.531 36.9901 121.531 49.8753C121.531 62.761 133.833 73.2436 148.952 73.2436C164.072 73.2436 176.374 62.761 176.374 49.8753C176.374 36.9901 164.072 26.5075 148.952 26.5075Z" fill="#FFC300"/>
<path d="M318.974 90.4094C318.974 82.9483 311.851 76.8778 303.096 76.8778C294.341 76.8778 287.218 82.9483 287.218 90.4094C287.218 94.089 288.956 97.426 291.762 99.868C288.956 102.31 287.218 105.648 287.218 109.327C287.218 111.577 289.357 113.4 291.997 113.4C294.637 113.4 296.776 111.577 296.776 109.327C296.776 106.357 299.612 103.94 303.096 103.94C306.581 103.94 309.417 106.357 309.417 109.327C309.417 111.577 311.556 113.4 314.195 113.4C316.835 113.4 318.974 111.577 318.974 109.327C318.974 105.647 317.236 102.31 314.43 99.868C317.236 97.4271 318.974 94.089 318.974 90.4094ZM303.095 85.0232C306.58 85.0232 309.415 87.4396 309.415 90.4094C309.415 93.3792 306.58 95.7956 303.095 95.7956C299.611 95.7956 296.775 93.3792 296.775 90.4094C296.775 87.4396 299.611 85.0232 303.095 85.0232Z" fill="#6984FF"/>
<path d="M407.083 172.715H403.977V170.068C403.977 167.819 401.838 165.996 399.198 165.996C396.558 165.996 394.419 167.819 394.419 170.068V172.715H391.313C388.673 172.715 386.534 174.538 386.534 176.788C386.534 179.037 388.673 180.86 391.313 180.86H394.419V183.508C394.419 185.757 396.558 187.58 399.198 187.58C401.838 187.58 403.977 185.757 403.977 183.508V180.86H407.083C409.722 180.86 411.861 179.037 411.861 176.788C411.861 174.538 409.722 172.715 407.083 172.715Z" fill="#8399FE"/>
<path d="M120.257 377.014C118.863 377.014 117.463 376.834 116.095 376.471C112.534 375.528 109.62 373.459 107.884 370.648C106.15 367.835 105.805 364.616 106.911 361.581C109.197 355.32 117.031 351.808 124.383 353.757C131.73 355.705 135.85 362.384 133.564 368.646C132.458 371.68 130.031 374.164 126.731 375.642C124.701 376.551 122.488 377.014 120.257 377.014ZM120.243 361.364C118.367 361.364 116.626 362.396 116.039 364.001C115.69 364.957 115.8 365.971 116.345 366.858C116.892 367.744 117.812 368.396 118.935 368.694C121.251 369.308 123.721 368.201 124.441 366.227C125.161 364.254 123.863 362.147 121.546 361.534C121.113 361.418 120.674 361.364 120.243 361.364Z" fill="#E5E5E5" fill-opacity="0.8"/>
<path d="M274.636 36.1166C273.242 36.1166 271.842 35.9368 270.474 35.5743C266.913 34.6311 263.999 32.5621 262.263 29.7505C260.529 26.9379 260.183 23.7191 261.29 20.6841C263.575 14.4233 271.41 10.9112 278.761 12.8595C286.109 14.8078 290.228 21.4865 287.943 27.7484C286.837 30.7827 284.41 33.2667 281.11 34.7452C279.08 35.654 276.867 36.1166 274.636 36.1166ZM274.622 20.4671C272.746 20.4671 271.005 21.4987 270.418 23.1035C270.069 24.0594 270.178 25.0736 270.724 25.9609C271.271 26.8471 272.191 27.4994 273.314 27.7967C275.63 28.4105 278.1 27.3038 278.819 25.3302C279.54 23.3566 278.242 21.2503 275.925 20.6364C275.492 20.5212 275.053 20.4671 274.622 20.4671Z" fill="#E5E5E5"/>
<path d="M79.1934 130.661H76.0868V128.015C76.0868 125.765 73.9471 123.942 71.3082 123.942C68.6693 123.942 66.5295 125.765 66.5295 128.015V130.661H63.4236C60.7848 130.661 58.6443 132.484 58.6443 134.734C58.6443 136.984 60.7848 138.807 63.4236 138.807H66.5295V141.454C66.5295 143.704 68.6693 145.526 71.3082 145.526C73.9471 145.526 76.0868 143.704 76.0868 141.454V138.807H79.1934C81.8323 138.807 83.9721 136.984 83.9721 134.734C83.9721 132.484 81.8323 130.661 79.1934 130.661Z" fill="#8399FE"/>
<path d="M376.267 318.865H373.16V316.217C373.16 313.968 371.022 312.145 368.382 312.145C365.742 312.145 363.603 313.968 363.603 316.217V318.865H360.497C357.857 318.865 355.718 320.687 355.718 322.937C355.718 325.186 357.857 327.009 360.497 327.009H363.603V329.657C363.603 331.906 365.742 333.729 368.382 333.729C371.022 333.729 373.16 331.906 373.16 329.657V327.009H376.267C378.906 327.009 381.046 325.186 381.046 322.937C381.046 320.687 378.906 318.865 376.267 318.865Z" fill="#01ECA5"/>
<path d="M53.7774 109.261C52.3839 109.261 50.9835 109.082 49.6159 108.719C46.0567 107.777 43.1406 105.708 41.4057 102.897C39.6715 100.084 39.326 96.8651 40.4328 93.8301C41.5395 90.7969 43.9668 88.313 47.2666 86.8334C50.5677 85.356 54.3448 85.061 57.904 86.0042C65.2533 87.9528 69.3724 94.6325 67.0865 100.894C65.9797 103.928 63.5525 106.412 60.2527 107.89C58.2215 108.8 56.0093 109.261 53.7774 109.261ZM53.7542 93.6108C53.0509 93.6108 52.3545 93.7568 51.7141 94.0425C50.6742 94.5086 49.9082 95.2923 49.5593 96.2483C49.2104 97.2055 49.3196 98.2202 49.8665 99.1064C50.4127 99.9925 51.3317 100.644 52.4535 100.942C53.576 101.239 54.7674 101.146 55.8072 100.681C56.8471 100.215 57.6118 99.4316 57.9607 98.4762C57.9607 98.4751 57.9607 98.4751 57.9607 98.4751C58.681 96.5014 57.3824 94.3963 55.0658 93.7818C54.6356 93.6672 54.1939 93.6108 53.7542 93.6108Z" fill="white"/>
<path d="M333.195 185.308C331.928 185.308 330.711 184.878 329.815 184.114L318.903 174.807C317.037 173.216 317.039 170.637 318.905 169.047C320.772 167.457 323.797 167.457 325.663 169.05L333.197 175.475L371.348 142.955C373.214 141.365 376.24 141.366 378.106 142.955C379.972 144.546 379.972 147.123 378.107 148.714L336.575 184.114C335.679 184.878 334.463 185.308 333.195 185.308Z" fill="#2626BC" fill-opacity="0.8"/>
</svg>
