<svg width="60" height="60" viewBox="0 0 60 60" fill="none" xmlns="http://www.w3.org/2000/svg">
<path d="M0 11.25C0 9.1793 1.9192 7.5 4.28571 7.5H55.7143C58.0848 7.5 60 9.1793 60 11.25C60 13.3242 58.0848 15 55.7143 15H4.28571C1.9192 15 0 13.3242 0 11.25ZM0 30C0 27.9258 1.9192 26.25 4.28571 26.25H55.7143C58.0848 26.25 60 27.9258 60 30C60 32.0742 58.0848 33.75 55.7143 33.75H4.28571C1.9192 33.75 0 32.0742 0 30ZM55.7143 52.5H4.28571C1.9192 52.5 0 50.8242 0 48.75C0 46.6758 1.9192 45 4.28571 45H55.7143C58.0848 45 60 46.6758 60 48.75C60 50.8242 58.0848 52.5 55.7143 52.5Z" fill="white"/>
</svg>
