<svg width="150" height="166" viewBox="0 0 150 166" fill="none" xmlns="http://www.w3.org/2000/svg">
<path d="M54.1673 15.5073C54.1673 24.0718 48.5684 31.0146 41.6674 31.0146C34.7664 31.0146 29.1675 24.0718 29.1675 15.5073C29.1675 6.94274 34.7664 0 41.6674 0C48.5684 0 54.1673 6.94274 54.1673 15.5073ZM39.5841 113.72V155.073C39.5841 160.791 35.8601 165.411 31.2508 165.411C26.6415 165.411 22.9175 160.791 22.9175 155.073V82.9962L15.4775 98.3743C13.1077 103.253 7.98793 104.836 4.04265 101.896C0.0972587 98.9558 -1.17893 92.6237 1.19189 87.713L16.3681 56.4077C20.8863 47.0711 29.0112 41.3527 37.7872 41.3527H45.5476C54.3236 41.3527 62.4485 47.0711 66.9797 56.4077L78.6723 80.5409C74.2453 86.2269 71.1984 92.9468 69.1412 100.41C68.6464 99.7958 67.9953 99.1174 67.8651 98.3743L60.4173 82.9962V155.073C60.4173 160.791 56.6933 165.411 52.084 165.411C47.4746 165.411 43.7507 160.791 43.7507 155.073V113.72H39.5841ZM150 118.889C150 144.573 133.203 165.411 112.5 165.411C91.7973 165.411 75.0005 144.573 75.0005 118.889C75.0005 93.2052 91.7973 72.3673 112.5 72.3673C133.203 72.3673 150 93.2052 150 118.889ZM124.141 104.9L108.334 124.511L100.86 115.238C99.2451 113.203 96.5889 113.203 94.9743 115.238C93.3337 117.241 93.3337 120.537 94.9743 122.54L105.391 135.463C107.005 137.498 109.662 137.498 111.276 135.463L130.026 112.202C131.667 110.199 131.667 106.903 130.026 104.9C128.412 102.865 125.755 102.865 124.141 104.9Z" fill="#4791A4"/>
</svg>
