<svg width="171" height="198" viewBox="0 0 171 198" fill="none" xmlns="http://www.w3.org/2000/svg">
<rect x="10" y="22" width="30" height="118" fill="white"/>
<rect x="10" y="110" width="111" height="30" fill="white"/>
<rect x="10" width="139" height="30" fill="white"/>
<rect x="122" width="30" height="110" fill="white"/>
<path d="M130 120H160.145V147.042H130V120Z" fill="white"/>
<path d="M21.6094 185.656L30.9844 193.086L26.2031 197.164L16.9922 189.734L21.6094 185.656ZM31.3125 173.188V174.711C31.3125 177.305 30.9531 179.633 30.2344 181.695C29.5156 183.758 28.5 185.516 27.1875 186.969C25.875 188.422 24.3203 189.539 22.5234 190.32C20.7422 191.086 18.7656 191.469 16.5938 191.469C14.4219 191.469 12.4375 191.086 10.6406 190.32C8.84375 189.539 7.28125 188.422 5.95312 186.969C4.64062 185.516 3.625 183.758 2.90625 181.695C2.1875 179.633 1.82812 177.305 1.82812 174.711V173.188C1.82812 170.594 2.1875 168.266 2.90625 166.203C3.625 164.125 4.63281 162.359 5.92969 160.906C7.24219 159.453 8.79688 158.344 10.5938 157.578C12.3906 156.797 14.375 156.406 16.5469 156.406C18.7188 156.406 20.7031 156.797 22.5 157.578C24.2969 158.344 25.8516 159.453 27.1641 160.906C28.4766 162.359 29.4922 164.125 30.2109 166.203C30.9453 168.266 31.3125 170.594 31.3125 173.188ZM23.5547 174.711V173.141C23.5547 171.406 23.3984 169.875 23.0859 168.547C22.7891 167.203 22.3359 166.078 21.7266 165.172C21.1328 164.266 20.3984 163.586 19.5234 163.133C18.6484 162.664 17.6562 162.43 16.5469 162.43C15.4062 162.43 14.3984 162.664 13.5234 163.133C12.6641 163.586 11.9375 164.266 11.3438 165.172C10.7656 166.078 10.3203 167.203 10.0078 168.547C9.71094 169.875 9.5625 171.406 9.5625 173.141V174.711C9.5625 176.43 9.71094 177.961 10.0078 179.305C10.3203 180.633 10.7734 181.758 11.3672 182.68C11.9609 183.602 12.6953 184.297 13.5703 184.766C14.4453 185.234 15.4531 185.469 16.5938 185.469C17.7031 185.469 18.6875 185.234 19.5469 184.766C20.4219 184.297 21.1562 183.602 21.75 182.68C22.3438 181.758 22.7891 180.633 23.0859 179.305C23.3984 177.961 23.5547 176.43 23.5547 174.711ZM44.6953 191H37.3359V163.484C37.3359 161.531 37.7188 159.891 38.4844 158.562C39.2656 157.234 40.3672 156.227 41.7891 155.539C43.2109 154.852 44.8906 154.508 46.8281 154.508C47.5 154.508 48.125 154.555 48.7031 154.648C49.2969 154.727 49.875 154.836 50.4375 154.977V160.438C50.1406 160.359 49.8359 160.305 49.5234 160.273C49.2109 160.242 48.8359 160.227 48.3984 160.227C47.6172 160.227 46.9453 160.352 46.3828 160.602C45.8359 160.836 45.4141 161.203 45.1172 161.703C44.8359 162.188 44.6953 162.781 44.6953 163.484V191ZM49.7109 165.641V170.773H33.6328V165.641H49.7109ZM51.8203 178.578V178.086C51.8203 176.227 52.0859 174.516 52.6172 172.953C53.1484 171.375 53.9297 170.008 54.9609 168.852C55.9922 167.695 57.2578 166.797 58.7578 166.156C60.2578 165.5 61.9766 165.172 63.9141 165.172C65.8828 165.172 67.6172 165.5 69.1172 166.156C70.6328 166.797 71.9062 167.695 72.9375 168.852C73.9688 170.008 74.75 171.375 75.2812 172.953C75.8125 174.516 76.0781 176.227 76.0781 178.086V178.578C76.0781 180.422 75.8125 182.133 75.2812 183.711C74.75 185.273 73.9688 186.641 72.9375 187.812C71.9062 188.969 70.6406 189.867 69.1406 190.508C67.6406 191.148 65.9141 191.469 63.9609 191.469C62.0234 191.469 60.2969 191.148 58.7812 190.508C57.2656 189.867 55.9922 188.969 54.9609 187.812C53.9297 186.641 53.1484 185.273 52.6172 183.711C52.0859 182.133 51.8203 180.422 51.8203 178.578ZM59.1562 178.086V178.578C59.1562 179.578 59.2344 180.516 59.3906 181.391C59.5625 182.266 59.8359 183.031 60.2109 183.688C60.5859 184.344 61.0781 184.859 61.6875 185.234C62.3125 185.594 63.0703 185.773 63.9609 185.773C64.8516 185.773 65.6016 185.594 66.2109 185.234C66.8203 184.859 67.3125 184.344 67.6875 183.688C68.0625 183.031 68.3281 182.266 68.4844 181.391C68.6562 180.516 68.7422 179.578 68.7422 178.578V178.086C68.7422 177.102 68.6562 176.18 68.4844 175.32C68.3281 174.445 68.0625 173.672 67.6875 173C67.3125 172.328 66.8125 171.805 66.1875 171.43C65.5781 171.055 64.8203 170.867 63.9141 170.867C63.0391 170.867 62.2969 171.055 61.6875 171.43C61.0781 171.805 60.5859 172.328 60.2109 173C59.8359 173.672 59.5625 174.445 59.3906 175.32C59.2344 176.18 59.1562 177.102 59.1562 178.086ZM87.2578 171.547V191H79.9453V165.641H86.8125L87.2578 171.547ZM94.8281 165.453L94.7109 172.273C94.3984 172.227 93.9922 172.188 93.4922 172.156C92.9922 172.109 92.5625 172.086 92.2031 172.086C91.2656 172.086 90.4531 172.203 89.7656 172.438C89.0938 172.656 88.5312 172.984 88.0781 173.422C87.6406 173.859 87.3125 174.406 87.0938 175.062C86.875 175.703 86.7656 176.445 86.7656 177.289L85.3828 176.609C85.3828 174.938 85.5469 173.406 85.875 172.016C86.2031 170.625 86.6797 169.422 87.3047 168.406C87.9297 167.375 88.6953 166.578 89.6016 166.016C90.5078 165.453 91.5391 165.172 92.6953 165.172C93.0703 165.172 93.4531 165.195 93.8438 165.242C94.2344 165.289 94.5625 165.359 94.8281 165.453ZM105.164 170.961V191H97.8516V165.641H104.719L105.164 170.961ZM104.227 177.43L102.375 177.477C102.375 175.695 102.586 174.062 103.008 172.578C103.445 171.078 104.078 169.773 104.906 168.664C105.734 167.555 106.758 166.695 107.977 166.086C109.211 165.477 110.633 165.172 112.242 165.172C113.367 165.172 114.391 165.344 115.312 165.688C116.234 166.016 117.023 166.539 117.68 167.258C118.352 167.961 118.867 168.883 119.227 170.023C119.586 171.148 119.766 172.5 119.766 174.078V191H112.453V174.969C112.453 173.844 112.312 172.992 112.031 172.414C111.766 171.82 111.375 171.414 110.859 171.195C110.344 170.977 109.727 170.867 109.008 170.867C108.227 170.867 107.531 171.039 106.922 171.383C106.328 171.711 105.828 172.172 105.422 172.766C105.016 173.359 104.711 174.055 104.508 174.852C104.32 175.648 104.227 176.508 104.227 177.43ZM119.016 177.055L116.695 177.242C116.695 175.523 116.898 173.93 117.305 172.461C117.711 170.992 118.32 169.719 119.133 168.641C119.945 167.547 120.953 166.695 122.156 166.086C123.375 165.477 124.789 165.172 126.398 165.172C127.586 165.172 128.664 165.344 129.633 165.688C130.617 166.031 131.461 166.586 132.164 167.352C132.883 168.117 133.438 169.125 133.828 170.375C134.219 171.609 134.414 173.125 134.414 174.922V191H127.055V174.922C127.055 173.812 126.914 172.969 126.633 172.391C126.367 171.812 125.977 171.414 125.461 171.195C124.961 170.977 124.359 170.867 123.656 170.867C122.875 170.867 122.195 171.031 121.617 171.359C121.039 171.672 120.555 172.109 120.164 172.672C119.773 173.219 119.484 173.867 119.297 174.617C119.109 175.367 119.016 176.18 119.016 177.055ZM152.812 183.945C152.812 183.477 152.664 183.062 152.367 182.703C152.086 182.344 151.57 182.016 150.82 181.719C150.086 181.422 149.047 181.125 147.703 180.828C146.438 180.562 145.258 180.219 144.164 179.797C143.07 179.359 142.117 178.836 141.305 178.227C140.492 177.602 139.859 176.867 139.406 176.023C138.953 175.164 138.727 174.188 138.727 173.094C138.727 172.031 138.953 171.023 139.406 170.07C139.875 169.117 140.547 168.273 141.422 167.539C142.312 166.805 143.391 166.227 144.656 165.805C145.938 165.383 147.391 165.172 149.016 165.172C151.25 165.172 153.18 165.523 154.805 166.227C156.43 166.914 157.68 167.883 158.555 169.133C159.43 170.367 159.867 171.781 159.867 173.375H152.555C152.555 172.719 152.43 172.148 152.18 171.664C151.93 171.18 151.547 170.805 151.031 170.539C150.516 170.258 149.836 170.117 148.992 170.117C148.336 170.117 147.758 170.234 147.258 170.469C146.773 170.688 146.391 170.992 146.109 171.383C145.844 171.773 145.711 172.227 145.711 172.742C145.711 173.102 145.789 173.43 145.945 173.727C146.117 174.008 146.375 174.273 146.719 174.523C147.078 174.758 147.539 174.969 148.102 175.156C148.68 175.344 149.383 175.523 150.211 175.695C151.977 176.023 153.586 176.484 155.039 177.078C156.508 177.672 157.68 178.492 158.555 179.539C159.445 180.586 159.891 181.969 159.891 183.688C159.891 184.812 159.633 185.844 159.117 186.781C158.617 187.719 157.891 188.539 156.938 189.242C155.984 189.945 154.844 190.492 153.516 190.883C152.188 191.273 150.688 191.469 149.016 191.469C146.625 191.469 144.602 191.039 142.945 190.18C141.289 189.32 140.039 188.242 139.195 186.945C138.367 185.633 137.953 184.289 137.953 182.914H144.82C144.852 183.758 145.062 184.445 145.453 184.977C145.859 185.508 146.383 185.898 147.023 186.148C147.664 186.383 148.383 186.5 149.18 186.5C149.977 186.5 150.641 186.391 151.172 186.172C151.703 185.953 152.109 185.656 152.391 185.281C152.672 184.891 152.812 184.445 152.812 183.945Z" fill="white"/>
</svg>
