<svg width="50" height="45" viewBox="0 0 50 45" fill="none" xmlns="http://www.w3.org/2000/svg">
<path d="M0 7.5C0 3.35742 2.79785 0 6.25 0H43.75C47.1973 0 50 3.35742 50 7.5V37.5C50 41.6367 47.1973 45 43.75 45H6.25C2.79785 45 0 41.6367 0 37.5V7.5ZM4.6875 7.5V10.0898L21.5332 26.6836C23.5449 28.6758 26.4551 28.6758 28.4668 26.6836L45.3125 10.0898V7.39453C45.3125 6.46875 44.6094 5.51953 43.75 5.51953H6.25C5.38672 5.51953 4.6875 6.46875 4.6875 7.39453V7.5ZM4.6875 17.3672V37.5C4.6875 38.5313 5.38672 39.375 6.25 39.375H43.75C44.6094 39.375 45.3125 38.5313 45.3125 37.5V17.3672L31.4453 31.0312C27.6953 34.7227 22.3047 34.7227 18.4668 31.0312L4.6875 17.3672Z" fill="white"/>
</svg>
