<svg width="150" height="166" viewBox="0 0 150 166" fill="none" xmlns="http://www.w3.org/2000/svg">
<path d="M27.6318 15.5073C27.6318 6.94274 32.9361 0 39.4739 0C46.0117 0 51.316 6.94274 51.316 15.5073C51.316 24.0718 46.0117 31.0146 39.4739 31.0146C32.9361 31.0146 27.6318 24.0718 27.6318 15.5073ZM29.6055 165.411C25.2388 165.411 21.7108 160.791 21.7108 155.073V82.9962L14.6623 98.3743C12.4172 103.253 7.56692 104.836 3.82927 101.896C0.0916116 98.9558 -1.11727 92.6237 1.13026 87.713L15.5061 56.4077C19.7865 47.0711 27.4838 41.3527 35.7979 41.3527H71.0528V15.5073C71.0528 6.94274 76.3571 9.69205e-05 82.8949 9.69205e-05H138.158C144.696 9.69205e-05 150 6.94274 150 15.5073V87.8746C150 96.4359 144.696 103.382 138.158 103.382H82.8949C76.3571 103.382 71.0528 96.4359 71.0528 87.8746V72.3673H86.8422V82.7055H134.211V20.6764H86.8422V41.3527H90.7896C95.1564 41.3527 98.6843 45.9726 98.6843 51.6909C98.6843 57.4092 95.1564 62.0291 90.7896 62.0291H57.237V155.073C57.237 160.791 53.7091 165.411 49.3423 165.411C44.9756 165.411 41.4476 160.791 41.4476 155.073V113.72H37.5002V155.073C37.5002 160.791 33.9723 165.411 29.6055 165.411Z" fill="#40B2A4"/>
</svg>
